<svg xmlns="http://www.w3.org/2000/svg" viewBox="0 0 1880 330" fill="currentColor" xmlns:c2pa="http://c2pa.org/manifest"><metadata><c2pa:manifest>AAAWgmp1bWIAAAAeanVtZGMycGEAEQAQgAAAqgA4m3EDYzJwYQAAABZcanVtYgAAAEdqdW1kYzJtYQARABCAAACqADibcQN1cm46YzJwYTo2Yjg2ZmExZi0zOWY2LTQxMzYtYjhhMy01N2M0YzcyMTI5MWYAAAADl2p1bWIAAAApanVtZGMyYXMAEQAQgAAAqgA4m3EDYzJwYS5hc3NlcnRpb25zAAAAALxqdW1iAAAARGp1bWRjYm9yABEAEIAAAKoAOJtxE2MycGEuaW5ncmVkaWVudC52MwAAAAAYYzJzaMax/kd+QZtwpbeNakF21N8AAABwY2JvcqNpZGM6Zm9ybWF0bWltYWdlL3N2Zyt4bWxqaW5zdGFuY2VJRHgseG1wOmlpZDowYTYwMDU2OS0xZmRiLTRiODQtOWZlMS1hMTU4M2I2MDY5NGNscmVsYXRpb25zaGlwaHBhcmVudE9mAAAB4mp1bWIAAABBanVtZGNib3IAEQAQgAAAqgA4m3ETYzJwYS5hY3Rpb25zLnYyAAAAABhjMnNoDWQvZN4dIIsf487nmUGJ2gAAAZljYm9yomdhY3Rpb25zgqJmYWN0aW9ua2MycGEub3BlbmVkanBhcmFtZXRlcnOha2luZ3JlZGllbnRzgaJjdXJseC1zZWxmI2p1bWJmPWMycGEuYXNzZXJ0aW9ucy9jMnBhLmluZ3JlZGllbnQudjNkaGFzaFgg/zLMmOnapXtZP5a0EcW/ZVBQRDwuDEhwW/Y4+apWU1akZmFjdGlvbngdY29tLmFudGhyb3BpYy5jbGF1ZGUucHJvdmlkZWRqcGFyYW1ldGVyc6F4H2NvbS5hbnRocm9waWMub3JpZ2luLWNvbmZpZGVuY2VndW5rbm93bmtkZXNjcmlwdGlvbnhmQ2xhdWRlIHByb3ZpZGVkIHRoaXMgZmlsZSBhdCB0aGUgcmVxdWVzdCBvZiBhIHVzZXIgYW5kIG1heSBoYXZlIGNyZWF0ZWQgb3IgbW9kaWZpZWQgdGhlIGZpbGUgY29udGVudHMubXNvZnR3YXJlQWdlbnShZG5hbWVmQ2xhdWRlcmFsbEFjdGlvbnNJbmNsdWRlZPUAAADIanVtYgAAAEBqdW1kY2JvcgARABCAAACqADibcRNjMnBhLmhhc2guZGF0YQAAAAAYYzJzaIBOipmZHaHTVBWLO07JNaQAAACAY2JvcqVjYWxnZnNoYTI1NmNwYWRNAAAAAAAAAAAAAAAAAGRoYXNoWCDTQaPwd6uJe6lpx/lfD36hUqms+hCcH93OONDTFf/s22RuYW1lbmp1bWJmIG1hbmlmZXN0amV4Y2x1c2lvbnOBomVzdGFydBiSZmxlbmd0aBkeBAAAAj5qdW1iAAAAJ2p1bWRjMmNsABEAEIAAAKoAOJtxA2MycGEuY2xhaW0udjIAAAACD2Nib3KlY2FsZ2ZzaGEyNTZpc2lnbmF0dXJleE1zZWxmI2p1bWJmPS9jMnBhL3VybjpjMnBhOjZiODZmYTFmLTM5ZjYtNDEzNi1iOGEzLTU3YzRjNzIxMjkxZi9jMnBhLnNpZ25hdHVyZWppbnN0YW5jZUlEeCx4bXA6aWlkOjdhMzliNzJmLTM4ZWMtNDFhOC04Yzk2LTk4ZmEzOTcxNmRiOHJjcmVhdGVkX2Fzc2VydGlvbnODomN1cmx4LXNlbGYjanVtYmY9YzJwYS5hc3NlcnRpb25zL2MycGEuaW5ncmVkaWVudC52M2RoYXNoWCD/MsyY6dqle1k/lrQRxb9lUFBEPC4MSHBb9jj5qlZTVqJjdXJseCpzZWxmI2p1bWJmPWMycGEuYXNzZXJ0aW9ucy9jMnBhLmFjdGlvbnMudjJkaGFzaFgg0bGE9ZgvqCd3S7OFwYU7eT9CMoLTJZRF2UgD2PZ84dGiY3VybHgpc2VsZiNqdW1iZj1jMnBhLmFzc2VydGlvbnMvYzJwYS5oYXNoLmRhdGFkaGFzaFgggOFpxCB5YnbAxNGrsvEomI3LCLvd3eDCRIZ7ZUqPuHl0Y2xhaW1fZ2VuZXJhdG9yX2luZm+jZG5hbWVvQW50aHJvcGljIEZpbGVzZ3ZlcnNpb25lMS4wLjBrc3BlY1ZlcnNpb25lMi40LjAAABA4anVtYgAAAChqdW1kYzJjcwARABCAAACqADibcQNjMnBhLnNpZ25hdHVyZQAAABAIY2JvctKEWQISogEmGCFZAgowggIGMIIBjaADAgECAhRA5aAK7sI50L64g/oGQgU9Z1UTADAKBggqhkjOPQQDAzBJMRcwFQYDVQQKEw5BbnRocm9waWMsIFBCQzEuMCwGA1UEAxMlQW50aHJvcGljIENvbnRlbnQgQ3JlZGVudGlhbHMgUm9vdCBDQTAeFw0yNjA4MDcxODQzNTZaFw0yODA4MDYxOTQzNTZaMEQxFzAVBgNVBAoTDkFudGhyb3BpYywgUEJDMSkwJwYDVQQDEyBBbnRocm9waWMgQ2xhdWRlIENvbnRlbnQgU2lnbmluZzBZMBMGByqGSM49AgEGCCqGSM49AwEHA0IABJh6CmvLUBgFFNU0vUKlOVtE6djd17L5SuwX0LemFisBM3dkd/3cyjxFA3Qo5S46fX0/ihY0VZ7mfb9KF703t5OjWDBWMA4GA1UdDwEB/wQEAwIHgDAVBgNVHSUEDjAMBgorBgEEAYPoXgIBMAwGA1UdEwEB/wQCMAAwHwYDVR0jBBgwFoAUzlHiBIFOZFsj+OPEz5o+nMHXXMIwCgYIKoZIzj0EAwMDZwAwZAIwMXMdFJ4BetLLVY7ORuE9noqbbAZOZn/aArXyTwFAZfKrPzxF2vPoJNf1+UCdg1XGAjBwX1zd9WGqYkqmL5SFqw1QySjr1zJfpJM9+1rdDwSPLMOPOjKuiXjoU/pUUeG9RwmhY3BhZFkNngAAAAAAAAAAAAAAAAAAAAAAAAAAAAAAAAAAAAAAAAAAAAAAAAAAAAAAAAAAAAAAAAAAAAAAAAAAAAAAAAAAAAAAAAAAAAAAAAAAAAAAAAAAAAAAAAAAAAAAAAAAAAAAAAAAAAAAAAAAAAAAAAAAAAAAAAAAAAAAAAAAAAAAAAAAAAAAAAAAAAAAAAAAAAAAAAAAAAAAAAAAAAAAAAAAAAAAAAAAAAAAAAAAAAAAAAAAAAAAAAAAAAAAAAAAAAAAAAAAAAAAAAAAAAAAAAAAAAAAAAAAAAAAAAAAAAAAAAAAAAAAAAAAAAAAAAAAAAAAAAAAAAAAAAAAAAAAAAAAAAAAAAAAAAAAAAAAAAAAAAAAAAAAAAAAAAAAAAAAAAAAAAAAAAAAAAAAAAAAAAAAAAAAAAAAAAAAAAAAAAAAAAAAAAAAAAAAAAAAAAAAAAAAAAAAAAAAAAAAAAAAAAAAAAAAAAAAAAAAAAAAAAAAAAAAAAAAAAAAAAAAAAAAAAAAAAAAAAAAAAAAAAAAAAAAAAAAAAAAAAAAAAAAAAAAAAAAAAAAAAAAAAAAAAAAAAAAAAAAAAAAAAAAAAAAAAAAAAAAAAAAAAAAAAAAAAAAAAAAAAAAAAAAAAAAAAAAAAAAAAAAAAAAAAAAAAAAAAAAAAAAAAAAAAAAAAAAAAAAAAAAAAAAAAAAAAAAAAAAAAAAAAAAAAAAAAAAAAAAAAAAAAAAAAAAAAAAAAAAAAAAAAAAAAAAAAAAAAAAAAAAAAAAAAAAAAAAAAAAAAAAAAAAAAAAAAAAAAAAAAAAAAAAAAAAAAAAAAAAAAAAAAAAAAAAAAAAAAAAAAAAAAAAAAAAAAAAAAAAAAAAAAAAAAAAAAAAAAAAAAAAAAAAAAAAAAAAAAAAAAAAAAAAAAAAAAAAAAAAAAAAAAAAAAAAAAAAAAAAAAAAAAAAAAAAAAAAAAAAAAAAAAAAAAAAAAAAAAAAAAAAAAAAAAAAAAAAAAAAAAAAAAAAAAAAAAAAAAAAAAAAAAAAAAAAAAAAAAAAAAAAAAAAAAAAAAAAAAAAAAAAAAAAAAAAAAAAAAAAAAAAAAAAAAAAAAAAAAAAAAAAAAAAAAAAAAAAAAAAAAAAAAAAAAAAAAAAAAAAAAAAAAAAAAAAAAAAAAAAAAAAAAAAAAAAAAAAAAAAAAAAAAAAAAAAAAAAAAAAAAAAAAAAAAAAAAAAAAAAAAAAAAAAAAAAAAAAAAAAAAAAAAAAAAAAAAAAAAAAAAAAAAAAAAAAAAAAAAAAAAAAAAAAAAAAAAAAAAAAAAAAAAAAAAAAAAAAAAAAAAAAAAAAAAAAAAAAAAAAAAAAAAAAAAAAAAAAAAAAAAAAAAAAAAAAAAAAAAAAAAAAAAAAAAAAAAAAAAAAAAAAAAAAAAAAAAAAAAAAAAAAAAAAAAAAAAAAAAAAAAAAAAAAAAAAAAAAAAAAAAAAAAAAAAAAAAAAAAAAAAAAAAAAAAAAAAAAAAAAAAAAAAAAAAAAAAAAAAAAAAAAAAAAAAAAAAAAAAAAAAAAAAAAAAAAAAAAAAAAAAAAAAAAAAAAAAAAAAAAAAAAAAAAAAAAAAAAAAAAAAAAAAAAAAAAAAAAAAAAAAAAAAAAAAAAAAAAAAAAAAAAAAAAAAAAAAAAAAAAAAAAAAAAAAAAAAAAAAAAAAAAAAAAAAAAAAAAAAAAAAAAAAAAAAAAAAAAAAAAAAAAAAAAAAAAAAAAAAAAAAAAAAAAAAAAAAAAAAAAAAAAAAAAAAAAAAAAAAAAAAAAAAAAAAAAAAAAAAAAAAAAAAAAAAAAAAAAAAAAAAAAAAAAAAAAAAAAAAAAAAAAAAAAAAAAAAAAAAAAAAAAAAAAAAAAAAAAAAAAAAAAAAAAAAAAAAAAAAAAAAAAAAAAAAAAAAAAAAAAAAAAAAAAAAAAAAAAAAAAAAAAAAAAAAAAAAAAAAAAAAAAAAAAAAAAAAAAAAAAAAAAAAAAAAAAAAAAAAAAAAAAAAAAAAAAAAAAAAAAAAAAAAAAAAAAAAAAAAAAAAAAAAAAAAAAAAAAAAAAAAAAAAAAAAAAAAAAAAAAAAAAAAAAAAAAAAAAAAAAAAAAAAAAAAAAAAAAAAAAAAAAAAAAAAAAAAAAAAAAAAAAAAAAAAAAAAAAAAAAAAAAAAAAAAAAAAAAAAAAAAAAAAAAAAAAAAAAAAAAAAAAAAAAAAAAAAAAAAAAAAAAAAAAAAAAAAAAAAAAAAAAAAAAAAAAAAAAAAAAAAAAAAAAAAAAAAAAAAAAAAAAAAAAAAAAAAAAAAAAAAAAAAAAAAAAAAAAAAAAAAAAAAAAAAAAAAAAAAAAAAAAAAAAAAAAAAAAAAAAAAAAAAAAAAAAAAAAAAAAAAAAAAAAAAAAAAAAAAAAAAAAAAAAAAAAAAAAAAAAAAAAAAAAAAAAAAAAAAAAAAAAAAAAAAAAAAAAAAAAAAAAAAAAAAAAAAAAAAAAAAAAAAAAAAAAAAAAAAAAAAAAAAAAAAAAAAAAAAAAAAAAAAAAAAAAAAAAAAAAAAAAAAAAAAAAAAAAAAAAAAAAAAAAAAAAAAAAAAAAAAAAAAAAAAAAAAAAAAAAAAAAAAAAAAAAAAAAAAAAAAAAAAAAAAAAAAAAAAAAAAAAAAAAAAAAAAAAAAAAAAAAAAAAAAAAAAAAAAAAAAAAAAAAAAAAAAAAAAAAAAAAAAAAAAAAAAAAAAAAAAAAAAAAAAAAAAAAAAAAAAAAAAAAAAAAAAAAAAAAAAAAAAAAAAAAAAAAAAAAAAAAAAAAAAAAAAAAAAAAAAAAAAAAAAAAAAAAAAAAAAAAAAAAAAAAAAAAAAAAAAAAAAAAAAAAAAAAAAAAAAAAAAAAAAAAAAAAAAAAAAAAAAAAAAAAAAAAAAAAAAAAAAAAAAAAAAAAAAAAAAAAAAAAAAAAAAAAAAAAAAAAAAAAAAAAAAAAAAAAAAAAAAAAAAAAAAAAAAAAAAAAAAAAAAAAAAAAAAAAAAAAAAAAAAAAAAAAAAAAAAAAAAAAAAAAAAAAAAAAAAAAAAAAAAAAAAAAAAAAAAAAAAAAAAAAAAAAAAAAAAAAAAAAAAAAAAAAAAAAAAAAAAAAAAAAAAAAAAAAAAAAAAAAAAAAAAAAAAAAAAAAAAAAAAAAAAAAAAAAAAAAAAAAAAAAAAAAAAAAAAAAAAAAAAAAAAAAAAAAAAAAAAAAAAAAAAAAAAAAAAAAAAAAAAAAAAAAAAAAAAAAAAAAAAAAAAAAAAAAAAAAAAAAAAAAAAAAAAAAAAAAAAAAAAAAAAAAAAAAAAAAAAAAAAAAAAAAAAAAAAAAAAAAAAAAAAAAAAAAAAAAAAAAAAAAAAAAAAAAAAAAAAAAAAAAAAAAAAAAAAAAAAAAAAAAAAAAAAAAAAAAAAAAAAAAAAAAAAAAAAAAAAAAAAAAAAAAAAAAAAAAAAAAAAAAAAAAAAAAAAAAAAAAAAAAAAAAAAAAAAAAAAAAAAAAAAAAAAAAAAAAAAAAAAAAAAAAAAAAAAAAAAAAAAAAAAAAAAAAAAAAAAAAAAAAAAAAAAAAAAAAAAAAAAAAAAAAAAAAAAAAAAAAAAAAAAAAAAAAAAAAAAAAAAAAAAAAAAAAAAAAAAAAAAAAAAAAAAAAAAAAAAAAAAAAAAAAAAAAAAAAAAAAAAAAAAAAAAAAAAAAAAAAAAAAAAAAAAAAAAAAAAAAAAAAAAAAAAAAAAAAAAAAAAAAAAAAAAAAAAAAAAAAAAAAAAAAAAAAAAAAAAAAAAAAAAAAAAAAAAAAAAAAAAAAAAAAAAAAAAAAAAAAAAAAAAAAAAAAAAAAAAAAAAAAAAAAAAAAAAAAAAAAAAAAAAAAAAAAAAAAAAAAAAAAAAAAAAAAAAAAAAAAAAAAAAAAAAAAAAAAAAAAAAAAAAAAAAAAAAAAAAAAAAAAAAAAAAAAAAAAAAAAAAAAAAAAAAAAAAAAAAAAAAAAAAAAAAAAAAAAAAAAAAAAAAAAAAAAAAAAAAAAAAAAAAAAAAAAAAAAAAAAAAAAAAAAAAAAAAAAAAAAAAAAAAAAAAAAAAAAAAAAAAAAAAAAAAAAAAAAAAAAAAAAAAAAAAAAAAAAAAAAAAAAAAAAAAAAAAAAAAAAAAAAAAAAAAAAAAAAAAAAAAAAAAAAAAAAAAAAAAAAAAAAAAAAAAAAAAAAAAAAAAAAAAAAAAAAAAAAAAAAAAAAAAAAAAAAAAAAAAAAAAAAAAAAAAAAAAAAAAAAAAAAAAAAAAAAAAAAAAAAAAAAAAAAAAAAAAAAAAAAAAAAAAAAAAAAAAAAAAAAAAAAAAAAAAAAAAAAAAAAAAAAAAAAAAAAAAAAAAAAAAAAAAAAAAAAAAAAAAAAAAAAAAAAAAAAAAAAAAAAAAAAAAAAAAAAAAAAAAAAAAAAAAAAAAAAAAAAAAAAAAAAAAAAAAAAAAAAAAAAAAAAAAAAAAAAAAAAAAAAAAAAAAAAAAAAAAAAAAAAAAAAAAAAAAAAAAAAAAAAAAAAAAAAAAAAAAAAAAAAAAAAAAAAAAAAAAAAAAAAAAAAAAAAAAAAAAAAAAAAAAAAAAAAAAAAAAAAAAAAAAAAAAAAAAAAAAAAAAAAAAAAAAAAAAAAAAAAAAAAAAAAAAAAAAAAAAAAAAAAAPZYQFInu1k9t6/ISOCKaS9SUCzZ6A2/CSnsBUjt7cnbLan8Xtp+/VCO4JUoQsnGA7SP48lGTu8NfpbY+8W3Ampf8io=</c2pa:manifest></metadata><path fill-rule="evenodd" d="M147.0 329.4C115.7 325.6 93.8 318.2 72.2 303.9C13.5 265.0 -12.8 194.4 6.5 127.5C20.6 78.3 56.7 39.9 106.0 21.7C123.5 15.2 134.6 13.5 158.5 13.5C180.4 13.5 191.9 15.0 206.0 19.8L211.1 21.6L206.3 24.7C192.1 34.0 182.1 52.8 182.0 70.3L182.0 76.2L176.8 75.3C173.9 74.9 165.0 74.5 157.0 74.5C145.1 74.6 141.0 75.0 134.1 76.8C124.2 79.5 113.4 84.3 105.3 89.7C98.3 94.3 85.2 106.6 80.5 113.0C53.5 149.8 55.1 199.1 84.4 234.1C100.9 253.8 123.3 265.3 152.0 268.5C157.0 269.1 174.1 267.8 179.7 266.4C181.9 265.8 182.0 266.0 182.0 271.7C182.0 279.3 185.1 291.6 188.7 298.3C192.2 304.7 201.1 314.5 206.8 318.1L211.1 320.8L207.8 321.9C201.4 323.9 188.4 326.8 181.5 327.9C173.4 329.1 152.1 330.0 147.0 329.4ZM229.2 313.9C218.3 311.8 208.2 305.0 202.0 295.8C196.6 287.6 194.7 280.6 195.2 269.5C195.6 259.3 198.3 252.0 204.7 244.2C207.5 240.8 208.1 239.4 207.4 238.1C206.8 237.2 201.3 227.6 195.0 216.8L183.6 197.0L178.1 197.0C156.3 196.9 145.0 170.2 159.8 153.8C164.6 148.5 170.2 145.8 177.8 145.1L184.2 144.5L195.2 125.5C209.9 99.9 208.9 102.9 204.6 97.9C198.1 90.3 195.7 83.8 195.2 72.8C194.5 58.0 198.6 48.0 209.4 38.3C227.3 22.1 255.6 24.6 270.8 43.8C279.6 54.8 282.4 70.3 278.0 83.4C274.0 95.6 263.7 106.2 251.8 110.6C247.2 112.3 231.4 113.0 226.9 111.8C224.4 111.1 223.9 111.8 212.4 131.7C205.9 143.0 200.4 152.7 200.2 153.1C200.0 153.6 201.0 156.4 202.5 159.5C206.3 167.1 206.2 175.2 202.5 183.1L199.7 188.8L211.8 209.7C222.4 227.9 224.2 230.5 226.2 230.3C239.3 228.8 240.9 228.9 247.0 230.4C259.7 233.7 269.9 241.9 275.7 253.7C288.1 278.8 272.9 308.7 245.1 314.0C239.0 315.1 235.3 315.1 229.2 313.9ZM455.0 272.0C435.7 269.3 415.2 261.2 401.9 251.2C378.3 233.3 367.0 204.6 368.3 166.5C369.5 135.2 377.8 113.6 395.0 97.0C415.9 76.9 446.1 67.8 486.5 69.3C510.4 70.2 528.6 74.5 545.0 83.1C570.4 96.4 582.7 115.1 585.6 144.8L586.3 152.0L550.3 152.0L514.3 152.0L513.8 146.2C513.1 139.4 509.6 131.8 504.8 127.3C497.8 120.6 483.1 117.6 469.4 119.9C457.3 122.0 449.3 128.7 444.8 140.3C442.6 146.2 442.5 147.7 442.5 171.5C442.5 195.3 442.6 196.8 444.8 202.2C449.7 214.3 459.4 221.4 472.9 222.8C498.6 225.5 514.9 215.1 516.8 194.8L517.3 189.0L551.8 189.0L586.3 189.0L585.6 196.8C584.1 213.5 579.8 225.9 571.6 237.5C560.6 252.8 539.7 264.4 512.0 270.5C503.2 272.5 465.5 273.4 455.0 272.0ZM655.7 272.0C641.1 269.4 628.7 263.4 621.2 255.3C612.5 246.0 609.0 235.2 609.0 217.4C609.0 198.2 613.2 186.8 624.5 175.5C634.9 165.0 649.0 158.3 668.5 154.5C681.0 152.1 703.7 150.0 724.9 149.3L744.2 148.7L743.8 140.6C743.1 127.7 738.0 120.9 726.4 117.4C717.4 114.7 702.4 116.3 694.9 120.6C690.9 123.0 687.0 128.4 687.0 131.6L687.0 134.0L650.5 134.0L614.0 134.0L614.0 129.2C614.1 105.6 631.0 86.3 660.2 76.5C677.3 70.8 687.0 69.6 715.5 69.5C746.5 69.5 760.2 71.6 779.9 79.6C795.4 85.8 805.5 94.2 811.2 105.5C817.3 117.4 817.3 117.5 817.8 168.2C818.2 214.3 818.2 215.0 820.4 218.2C823.1 222.3 827.5 223.9 836.2 223.9L843.0 224.0L843.0 245.1L843.0 266.1L839.5 267.6C830.3 271.4 822.7 272.4 804.0 272.5C787.4 272.5 784.7 272.3 778.0 270.2C773.9 268.9 768.5 266.7 766.0 265.3C760.6 262.2 753.4 255.6 751.4 251.8L750.0 249.0L742.4 254.1C732.4 260.8 718.5 267.3 708.0 270.0C700.9 271.9 696.4 272.3 680.0 272.6C669.3 272.7 658.3 272.5 655.7 272.0ZM1404.5 271.5C1359.8 264.3 1332.2 241.7 1322.5 204.5C1317.9 186.7 1317.8 156.0 1322.4 138.5C1331.3 104.3 1354.0 82.7 1391.5 73.0C1403.4 69.9 1418.5 68.7 1436.5 69.3C1473.0 70.6 1497.5 79.9 1515.7 99.4C1531.6 116.4 1538.9 138.8 1539.0 171.2L1539.0 184.0L1465.5 184.0L1392.0 184.0L1392.4 186.2C1392.7 187.5 1393.1 191.1 1393.4 194.2C1395.0 210.4 1404.4 221.8 1418.7 225.0C1425.6 226.6 1441.6 226.3 1447.6 224.5C1457.4 221.6 1465.2 213.8 1466.5 205.5C1467.9 197.2 1463.9 198.0 1503.7 198.0L1539.3 198.0L1538.7 206.0C1538.0 214.7 1534.7 225.7 1530.4 233.5C1528.9 236.2 1524.0 242.1 1519.6 246.5C1507.6 258.4 1492.8 265.6 1471.0 270.2C1458.1 272.9 1418.0 273.6 1404.5 271.5ZM878.2 173.2C858.3 120.6 841.7 76.5 841.4 75.2L840.8 73.0L880.2 73.0L919.6 73.0L937.5 134.0C951.0 179.8 955.9 195.0 957.0 195.0C958.1 195.0 963.0 179.7 976.3 134.3C986.1 100.9 994.2 73.4 994.4 73.3C994.6 73.1 1010.9 73.1 1030.7 73.2L1066.7 73.5L1032.9 162.0C1014.2 210.7 997.4 254.7 995.4 259.8L991.8 269.0L953.2 269.0L914.5 269.0L878.2 173.2ZM1085.0 134.5L1085.0 0.0L1121.5 0.0L1158.0 0.0L1158.0 46.5C1158.0 72.1 1158.3 93.0 1158.6 93.0C1158.9 93.0 1161.3 91.2 1163.8 88.9C1179.2 75.4 1202.6 68.0 1225.9 69.3C1244.8 70.4 1256.6 74.9 1267.6 85.3C1276.1 93.3 1281.1 102.2 1284.8 115.7L1287.4 125.5L1287.8 197.2L1288.1 269.0L1251.1 269.0L1214.1 269.0L1213.8 205.2C1213.5 147.0 1213.3 141.2 1211.8 137.8C1207.2 128.1 1199.4 123.4 1188.0 123.6C1173.0 123.7 1161.5 133.9 1159.1 149.0C1158.4 153.0 1158.0 177.4 1158.0 212.2L1158.0 269.0L1121.5 269.0L1085.0 269.0L1085.0 134.5ZM1570.2 171.2L1570.5 73.5L1600.6 73.2L1630.7 73.0L1633.1 87.5C1634.3 95.5 1635.7 102.0 1636.0 102.0C1636.3 102.0 1638.3 100.0 1640.4 97.5C1648.7 87.4 1667.1 76.3 1682.6 71.8C1689.4 69.8 1692.8 69.5 1706.0 69.5C1717.7 69.6 1723.1 70.0 1728.0 71.4C1749.9 77.4 1763.6 91.3 1770.0 114.2C1773.2 125.7 1773.9 142.2 1774.0 207.8L1774.0 269.0L1737.0 269.0L1700.0 269.0L1700.0 209.1C1700.0 172.8 1699.6 147.2 1699.0 143.9C1697.7 137.3 1693.6 130.3 1689.2 127.3C1684.1 123.9 1675.9 122.6 1668.7 124.0C1658.8 125.9 1651.5 131.6 1647.1 141.0L1644.5 146.5L1644.2 207.8L1643.9 269.0L1607.0 269.0L1570.0 269.0L1570.2 171.2ZM1806.0 232.0L1806.0 195.0L1843.0 195.0L1880.0 195.0L1880.0 232.0L1880.0 269.0L1843.0 269.0L1806.0 269.0L1806.0 232.0ZM725.3 223.7C733.2 220.1 737.6 216.5 740.8 211.1C743.2 207.0 743.5 205.3 743.9 195.1L744.2 183.7L731.4 184.3C715.2 185.0 705.5 187.0 696.3 191.5C688.3 195.5 684.6 199.2 683.0 205.0C681.8 209.6 683.0 216.1 685.7 219.9C691.7 227.9 711.9 229.8 725.3 223.7ZM1464.4 144.8C1461.5 124.6 1449.2 115.0 1428.1 116.3C1414.2 117.1 1404.9 121.8 1399.1 130.8C1396.4 135.1 1393.0 144.5 1393.0 147.7C1393.0 148.7 1399.9 149.0 1429.0 149.0L1465.0 149.0L1464.4 144.8Z"/></svg>